<svg xmlns="http://www.w3.org/2000/svg" viewBox="0 0 186 57.1">
	<path d="M182.1,15.5c0-1.9-0.2-3.2-0.6-4c-0.4-0.8-1.3-1.2-2.5-1.2c-1.2,0-2.4,0.2-3.5,0.7l-0.5,0.2v13.6h-3.9V7.3h3.9
		v1.1c1.7-1,3.4-1.5,4.9-1.5c2.4,0,4,0.7,4.9,2c0.9,1.3,1.3,3.5,1.3,6.5v9.4h-3.9V15.5z M156.4,17.7c0,1.4,0.3,2.5,1,3.2
		c0.6,0.7,1.8,1,3.5,1c1.7,0,3.4-0.1,5.2-0.2l1-0.1l0.1,2.8c-2.7,0.5-5.1,0.8-7.2,0.8c-2.6,0-4.5-0.7-5.7-2.1
		c-1.2-1.4-1.7-3.7-1.7-6.8c0-6.2,2.6-9.3,7.7-9.3c5,0,7.5,2.7,7.5,8l-0.2,2.7H156.4z M163,11.1c-0.6-0.7-1.5-1-2.8-1
		c-1.3,0-2.3,0.4-2.9,1.1c-0.6,0.7-0.9,1.9-0.9,3.6h7.5C163.9,13,163.6,11.8,163,11.1z M144.8,12.6v12.2h-3.9V7.3h3.9v2.1
		c2-1.3,4-2.1,6.1-2.5v3.8c-2,0.4-3.8,0.9-5.2,1.5L144.8,12.6z M141.7,43.2c-2.8-0.4-4.8-0.6-6.1-0.6c-1.3,0-2.1,0.1-2.6,0.4
		c-0.5,0.3-0.7,0.8-0.7,1.4c0,0.6,0.3,1.1,0.8,1.3c0.5,0.3,1.8,0.6,3.8,0.9c2,0.3,3.4,0.9,4.2,1.6c0.8,0.7,1.2,2,1.2,3.9
		c0,1.8-0.6,3.2-1.8,4.1c-1.2,0.9-3,1.3-5.3,1.3c-1.4,0-3.3-0.2-5.5-0.6l-1.1-0.2l0.1-3.2c2.9,0.4,4.9,0.6,6.2,0.6
		c1.3,0,2.2-0.2,2.7-0.5c0.5-0.3,0.8-0.8,0.8-1.5s-0.3-1.2-0.8-1.5c-0.5-0.3-1.7-0.6-3.7-0.9c-1.9-0.3-3.4-0.8-4.3-1.5
		c-0.9-0.7-1.4-1.9-1.4-3.7s0.6-3.1,1.9-4c1.2-0.9,2.8-1.3,4.8-1.3c1.5,0,3.4,0.2,5.6,0.6l1.1,0.2L141.7,43.2z M126.2,17.7
		c0,1.4,0.3,2.5,1,3.2c0.6,0.7,1.8,1,3.5,1c1.7,0,3.4-0.1,5.2-0.2l1-0.1l0.1,2.8c-2.7,0.5-5.1,0.8-7.2,0.8c-2.6,0-4.5-0.7-5.7-2.1
		c-1.2-1.4-1.7-3.7-1.7-6.8c0-6.2,2.6-9.3,7.7-9.3c5,0,7.5,2.7,7.5,8l-0.2,2.7H126.2z M132.9,11.1c-0.6-0.7-1.5-1-2.8-1
		c-1.3,0-2.3,0.4-2.9,1.1c-0.6,0.7-0.9,1.9-0.9,3.6h7.5C133.7,13,133.4,11.8,132.9,11.1z M124.9,36.6h-3.9v-4h3.9V36.6z M109.2,24.8
		l-4.6-17.5h4.1l3.4,14.3h1.1l3.6-14.3h4l-4.6,17.5H109.2z M105.8,48.8c0,2.1,0.2,3.5,0.5,4.2c0.4,0.7,1.2,1.1,2.5,1.1
		c1.3,0,2.5-0.2,3.5-0.7l0.5-0.2V39.6h3.9v17.5h-3.9V56c-1.7,1-3.3,1.5-4.8,1.5c-2.4,0-4.1-0.6-4.9-1.9c-0.8-1.3-1.2-3.6-1.2-6.8
		v-9.1h3.9V48.8z M97.8,0h3.9v24.8h-3.9V0z M99.4,43c-2,0.4-3.8,0.9-5.2,1.5l-0.8,0.3v12.2h-3.9V39.6h3.9v2.1c2-1.3,4-2.1,6.1-2.5V43
		z M89.4,7.3h3.9v17.5h-3.9V7.3z M89.4,0.3h3.9v4h-3.9V0.3z M82.5,57.1l-5.2-10l-3.6,0.2v9.8h-4v-24h4V44l3.6-0.3l5-10.5h4.5l-6,12.1
		l6.3,11.9H82.5z M69.9,21.1L81.2,4.9V4.2H69.9V0.8h16v3.7L74.6,20.7v0.7h11.3v3.4h-16V21.1z M57.3,39.2h-3.6
		c1.2-0.5,3.3-1.3,4.5-1.8v0.9C58.1,38.8,57.7,39.2,57.3,39.2z M48.7,39.2h-7.5c5.8-1,11.5-2.5,17-4.8v1.2
		C55.4,36.8,52.2,38.1,48.7,39.2z M0,34.9v-3c20.2,5.3,40.3,5.9,58.1-0.9v1.2C46.2,37.3,26.8,41.6,0,34.9z M0,29.7v-3
		c20.2,6,40.3,7.2,58.1,1v1.2C46.2,33.5,26.8,37.2,0,29.7z M0,24.4v-3c20.2,6.6,40.3,8.5,58.1,2.8v1.2C46.2,29.8,26.8,32.9,0,24.4z
		M0,19.2v-0.4C0,18.3,0.4,18,0.8,18h4.4c18.4,5.9,36.6,7.6,52.9,2.9v1.2C46.2,26.1,26.8,28.5,0,19.2z M11.4,18h6.5v-1.3
		c13.3,3.2,26.4,4,38.4,1.3h1c0.4,0,0.8,0.3,0.8,0.8C48.1,21.7,31.9,23.5,11.4,18z M17.9,12c7.6,2.1,15.1,3.3,22.3,3.6v1.9
		c-6.5,0-13.9-0.8-22.3-2.9V12z M17.9,7.4c7.6,2.3,15.1,3.8,22.3,4.3v1.9c-6.5-0.2-13.9-1.3-22.3-3.6V7.4z M17.9,2.7
		C25.5,5.3,33,7,40.2,7.8v1.9C33.7,9.3,26.3,8,17.9,5.4V2.7z M18.7,0h4.7c5.7,1.8,11.3,3.1,16.7,3.9v1.9c-6.5-0.6-13.9-2.2-22.3-5
		C17.9,0.3,18.3,0,18.7,0z M39.4,0c0.5,0,0.8,0.4,0.8,0.8V2c-3-0.4-8-1.2-11.5-2H39.4z M0.8,39.2c-0.5,0-0.8-0.4-0.8-0.8v-1.4
		c3.6,0.8,8.3,1.7,11.9,2.2H0.8z M40.2,39.3v1.9c-6.5,1.2-13.9,1.8-22.3,1.4V40C25.5,40.6,33,40.4,40.2,39.3z M40.2,43.2v1.9
		c-6.5,1.4-13.9,2.3-22.3,2.1v-2.7C25.5,45,33,44.6,40.2,43.2z M40.2,47.2v1.9c-6.5,1.6-13.9,2.7-22.3,2.8v-2.6
		C25.5,49.4,33,48.7,40.2,47.2z M40.2,53c-6.4,1.8-13.9,3.2-22.3,3.5c0-0.1,0-0.2,0-0.3v-2.4c7.6-0.1,15.1-1,22.3-2.8V53z M40.2,56.3
		c0,0.5-0.4,0.8-0.8,0.8h-8.2c3.1-0.5,6.1-1.2,9.1-2.1V56.3z M121.1,39.6h3.9v17.5h-3.9V39.6z" style="fill:#0068BD"/>
</svg>
